<?xml version="1.0" standalone="no"?>
<!DOCTYPE svg PUBLIC "-//W3C//DTD SVG 20010904//EN"
 "http://www.w3.org/TR/2001/REC-SVG-20010904/DTD/svg10.dtd">
<svg version="1.0" xmlns="http://www.w3.org/2000/svg"
 width="1322.000000pt" height="1080.000000pt" viewBox="0 0 1322.000000 1080.000000"
 preserveAspectRatio="xMidYMid meet">

<g transform="translate(0.000000,1080.000000) scale(0.100000,-0.100000)"
fill="#ffffff" stroke="none">
<path d="M6429 10329 l-716 -431 -1399 -3625 c-769 -1994 -1401 -3629 -1402
-3634 -2 -5 246 -9 600 -9 l604 0 1049 2794 c578 1537 1053 2792 1057 2788 4
-5 952 -2332 987 -2424 5 -14 253 108 1499 739 821 415 1491 757 1490 759 -2
1 -309 -96 -683 -216 -374 -120 -681 -218 -682 -216 -1 1 -378 877 -838 1946
-460 1070 -840 1948 -844 1952 -3 4 -329 -186 -722 -423z"/>
<path d="M7777 5643 c-1456 -713 -2646 -1297 -2644 -1299 1 -2 537 148 1191
332 654 184 1192 334 1195 334 4 0 221 -530 485 -1179 263 -648 481 -1183 485
-1190 5 -8 281 -10 1082 -9 l1075 3 -623 1445 c-342 795 -621 1449 -619 1454
1 5 661 194 1468 421 806 227 1477 416 1491 421 21 7 -158 62 -941 287 -532
153 -974 278 -982 277 -8 0 -1206 -584 -2663 -1297z"/>
<path d="M11418 1499 c-278 -31 -451 -185 -465 -412 -8 -124 19 -206 92 -285
66 -72 130 -107 301 -165 160 -55 203 -77 239 -119 24 -28 27 -38 23 -85 -7
-79 -44 -115 -140 -133 -99 -19 -230 23 -326 105 l-39 34 -112 -113 -113 -113
46 -40 c57 -50 158 -104 251 -133 98 -31 312 -39 405 -16 254 65 393 241 378
482 -6 106 -35 168 -107 237 -69 66 -139 103 -309 161 -163 56 -208 79 -227
116 -53 103 30 193 180 193 82 0 167 -32 224 -86 l33 -32 109 115 108 115 -27
28 c-15 16 -67 48 -117 73 -134 65 -268 89 -407 73z"/>
<path d="M420 764 c-168 -388 -306 -710 -308 -715 -2 -5 31 -9 75 -9 l79 0 78
190 78 190 368 0 368 0 57 -138 c32 -75 69 -161 81 -189 l23 -53 75 0 c42 0
76 3 76 8 1 4 -136 325 -302 714 l-303 707 -70 1 -70 0 -305 -706z m522 178
c81 -196 150 -365 154 -374 6 -17 -13 -18 -306 -18 -293 0 -312 1 -306 17 32
86 302 732 306 733 3 0 71 -161 152 -358z"/>
<path d="M1690 754 l0 -716 278 5 c300 5 340 11 457 66 131 62 204 167 213
305 12 189 -104 344 -277 372 l-42 7 69 33 c122 59 177 145 177 279 0 147 -58
246 -179 305 -96 47 -187 59 -458 60 l-238 0 0 -716z m585 558 c61 -28 100
-64 127 -116 16 -32 19 -54 16 -117 -3 -67 -7 -83 -33 -120 -64 -90 -162 -118
-412 -119 l-143 0 0 251 0 251 198 -4 c180 -3 201 -5 247 -26z m-65 -593 c100
-12 153 -33 208 -84 56 -50 75 -104 71 -203 -4 -88 -29 -138 -93 -187 -75 -57
-132 -69 -358 -73 l-208 -4 0 281 0 281 148 0 c81 0 186 -5 232 -11z"/>
<path d="M2970 755 l0 -715 453 2 452 3 3 63 3 62 -386 0 -385 0 0 275 0 275
345 0 345 0 0 65 0 65 -345 0 -345 0 0 245 0 245 370 0 370 0 0 65 0 65 -440
0 -440 0 0 -715z"/>
<path d="M4160 755 l0 -715 405 0 405 0 0 65 0 65 -335 0 -335 0 0 650 0 650
-70 0 -70 0 0 -715z"/>
<path d="M5333 773 c-166 -384 -305 -706 -309 -716 -6 -16 0 -18 72 -15 l79 3
77 185 77 185 369 3 369 2 68 -162 c99 -240 82 -218 170 -218 41 0 75 4 75 8
0 4 -136 325 -303 712 l-303 705 -70 3 -70 3 -301 -698z m526 148 c83 -200
151 -365 151 -367 0 -2 -139 -4 -310 -4 -170 0 -310 3 -310 7 0 20 306 741
312 735 4 -4 75 -171 157 -371z"/>
<path d="M6870 1320 l0 -150 200 0 200 0 0 -565 0 -565 175 0 175 0 0 565 0
565 200 0 200 0 0 150 0 150 -575 0 -575 0 0 -150z"/>
<path d="M8180 755 l0 -715 168 2 167 3 3 282 2 283 54 0 54 0 153 -283 154
-282 203 -3 c111 -1 202 0 202 3 0 3 -81 138 -180 300 -99 161 -180 297 -180
302 0 5 17 15 38 22 92 33 187 127 223 220 31 79 31 222 0 304 -57 147 -183
235 -386 267 -33 6 -198 10 -367 10 l-308 0 0 -715z m655 408 c62 -32 78 -56
83 -123 6 -76 -19 -119 -86 -151 -40 -20 -67 -24 -179 -27 l-133 -4 0 167 0
168 138 -5 c113 -4 144 -8 177 -25z"/>
<path d="M9493 973 c5 -545 5 -550 67 -673 36 -71 114 -158 180 -200 116 -74
298 -111 454 -91 253 33 410 150 495 370 l26 66 3 513 3 512 -175 0 -176 0 0
-470 c0 -448 -1 -472 -20 -524 -25 -65 -90 -129 -146 -145 -111 -31 -244 1
-297 71 -63 82 -62 68 -65 591 l-3 477 -175 0 -176 0 5 -497z"/>
<path d="M12020 1320 l0 -150 200 0 200 0 2 -562 3 -563 173 -3 172 -2 0 565
0 565 203 2 202 3 3 148 3 147 -581 0 -580 0 0 -150z"/>
</g>
</svg>
